<?xml version="1.0" encoding="utf-8" standalone="no"?>
<!DOCTYPE svg PUBLIC "-//W3C//DTD SVG 1.1//EN"
  "http://www.w3.org/Graphics/SVG/1.1/DTD/svg11.dtd">
<svg xmlns:xlink="http://www.w3.org/1999/xlink" width="337.932812pt" height="270.315469pt" viewBox="0 0 337.932812 270.315469" xmlns="http://www.w3.org/2000/svg" version="1.1">
 <metadata>
  <rdf:RDF xmlns:dc="http://purl.org/dc/elements/1.1/" xmlns:cc="http://creativecommons.org/ns#" xmlns:rdf="http://www.w3.org/1999/02/22-rdf-syntax-ns#">
   <cc:Work>
    <dc:type rdf:resource="http://purl.org/dc/dcmitype/StillImage"/>
    <dc:date>2024-02-15T14:05:23.965205</dc:date>
    <dc:format>image/svg+xml</dc:format>
    <dc:creator>
     <cc:Agent>
      <dc:title>Matplotlib v3.8.2, https://matplotlib.org/</dc:title>
     </cc:Agent>
    </dc:creator>
   </cc:Work>
  </rdf:RDF>
 </metadata>
 <defs>
  <style type="text/css">*{stroke-linejoin: round; stroke-linecap: butt}</style>
 </defs>
 <g id="figure_1">
  <g id="patch_1">
   <path d="M 0 270.315469 
L 337.932812 270.315469 
L 337.932812 0 
L 0 0 
z
" style="fill: #ffffff"/>
  </g>
  <g id="axes_1">
   <g id="patch_2">
    <path d="M 43.78125 232.759219 
L 322.78125 232.759219 
L 322.78125 10.999219 
L 43.78125 10.999219 
z
" style="fill: #ffffff"/>
   </g>
   <g id="matplotlib.axis_1">
    <g id="xtick_1">
     <g id="line2d_1">
      <path d="M 43.78125 232.759219 
L 43.78125 10.999219 
" clip-path="url(#p82d153823d)" style="fill: none; stroke: #b0b0b0; stroke-width: 0.8; stroke-linecap: square"/>
     </g>
     <g id="line2d_2">
      <defs>
       <path id="mdd372b16df" d="M 0 0 
L 0 3.5 
" style="stroke: #000000; stroke-width: 0.8"/>
      </defs>
      <g>
       <use xlink:href="#mdd372b16df" x="43.78125" y="232.759219" style="stroke: #000000; stroke-width: 0.8"/>
      </g>
     </g>
     <g id="text_1">
      <!-- −1.0 -->
      <g transform="translate(31.639844 247.357656) scale(0.1 -0.1)">
       <defs>
        <path id="DejaVuSans-2212" d="M 678 2272 
L 4684 2272 
L 4684 1741 
L 678 1741 
L 678 2272 
z
" transform="scale(0.015625)"/>
        <path id="DejaVuSans-31" d="M 794 531 
L 1825 531 
L 1825 4091 
L 703 3866 
L 703 4441 
L 1819 4666 
L 2450 4666 
L 2450 531 
L 3481 531 
L 3481 0 
L 794 0 
L 794 531 
z
" transform="scale(0.015625)"/>
        <path id="DejaVuSans-2e" d="M 684 794 
L 1344 794 
L 1344 0 
L 684 0 
L 684 794 
z
" transform="scale(0.015625)"/>
        <path id="DejaVuSans-30" d="M 2034 4250 
Q 1547 4250 1301 3770 
Q 1056 3291 1056 2328 
Q 1056 1369 1301 889 
Q 1547 409 2034 409 
Q 2525 409 2770 889 
Q 3016 1369 3016 2328 
Q 3016 3291 2770 3770 
Q 2525 4250 2034 4250 
z
M 2034 4750 
Q 2819 4750 3233 4129 
Q 3647 3509 3647 2328 
Q 3647 1150 3233 529 
Q 2819 -91 2034 -91 
Q 1250 -91 836 529 
Q 422 1150 422 2328 
Q 422 3509 836 4129 
Q 1250 4750 2034 4750 
z
" transform="scale(0.015625)"/>
       </defs>
       <use xlink:href="#DejaVuSans-2212"/>
       <use xlink:href="#DejaVuSans-31" x="83.789062"/>
       <use xlink:href="#DejaVuSans-2e" x="147.412109"/>
       <use xlink:href="#DejaVuSans-30" x="179.199219"/>
      </g>
     </g>
    </g>
    <g id="xtick_2">
     <g id="line2d_3">
      <path d="M 99.58125 232.759219 
L 99.58125 10.999219 
" clip-path="url(#p82d153823d)" style="fill: none; stroke: #b0b0b0; stroke-width: 0.8; stroke-linecap: square"/>
     </g>
     <g id="line2d_4">
      <g>
       <use xlink:href="#mdd372b16df" x="99.58125" y="232.759219" style="stroke: #000000; stroke-width: 0.8"/>
      </g>
     </g>
     <g id="text_2">
      <!-- −0.5 -->
      <g transform="translate(87.439844 247.357656) scale(0.1 -0.1)">
       <defs>
        <path id="DejaVuSans-35" d="M 691 4666 
L 3169 4666 
L 3169 4134 
L 1269 4134 
L 1269 2991 
Q 1406 3038 1543 3061 
Q 1681 3084 1819 3084 
Q 2600 3084 3056 2656 
Q 3513 2228 3513 1497 
Q 3513 744 3044 326 
Q 2575 -91 1722 -91 
Q 1428 -91 1123 -41 
Q 819 9 494 109 
L 494 744 
Q 775 591 1075 516 
Q 1375 441 1709 441 
Q 2250 441 2565 725 
Q 2881 1009 2881 1497 
Q 2881 1984 2565 2268 
Q 2250 2553 1709 2553 
Q 1456 2553 1204 2497 
Q 953 2441 691 2322 
L 691 4666 
z
" transform="scale(0.015625)"/>
       </defs>
       <use xlink:href="#DejaVuSans-2212"/>
       <use xlink:href="#DejaVuSans-30" x="83.789062"/>
       <use xlink:href="#DejaVuSans-2e" x="147.412109"/>
       <use xlink:href="#DejaVuSans-35" x="179.199219"/>
      </g>
     </g>
    </g>
    <g id="xtick_3">
     <g id="line2d_5">
      <path d="M 155.38125 232.759219 
L 155.38125 10.999219 
" clip-path="url(#p82d153823d)" style="fill: none; stroke: #b0b0b0; stroke-width: 0.8; stroke-linecap: square"/>
     </g>
     <g id="line2d_6">
      <g>
       <use xlink:href="#mdd372b16df" x="155.38125" y="232.759219" style="stroke: #000000; stroke-width: 0.8"/>
      </g>
     </g>
     <g id="text_3">
      <!-- 0.0 -->
      <g transform="translate(147.429688 247.357656) scale(0.1 -0.1)">
       <use xlink:href="#DejaVuSans-30"/>
       <use xlink:href="#DejaVuSans-2e" x="63.623047"/>
       <use xlink:href="#DejaVuSans-30" x="95.410156"/>
      </g>
     </g>
    </g>
    <g id="xtick_4">
     <g id="line2d_7">
      <path d="M 211.18125 232.759219 
L 211.18125 10.999219 
" clip-path="url(#p82d153823d)" style="fill: none; stroke: #b0b0b0; stroke-width: 0.8; stroke-linecap: square"/>
     </g>
     <g id="line2d_8">
      <g>
       <use xlink:href="#mdd372b16df" x="211.18125" y="232.759219" style="stroke: #000000; stroke-width: 0.8"/>
      </g>
     </g>
     <g id="text_4">
      <!-- 0.5 -->
      <g transform="translate(203.229688 247.357656) scale(0.1 -0.1)">
       <use xlink:href="#DejaVuSans-30"/>
       <use xlink:href="#DejaVuSans-2e" x="63.623047"/>
       <use xlink:href="#DejaVuSans-35" x="95.410156"/>
      </g>
     </g>
    </g>
    <g id="xtick_5">
     <g id="line2d_9">
      <path d="M 266.98125 232.759219 
L 266.98125 10.999219 
" clip-path="url(#p82d153823d)" style="fill: none; stroke: #b0b0b0; stroke-width: 0.8; stroke-linecap: square"/>
     </g>
     <g id="line2d_10">
      <g>
       <use xlink:href="#mdd372b16df" x="266.98125" y="232.759219" style="stroke: #000000; stroke-width: 0.8"/>
      </g>
     </g>
     <g id="text_5">
      <!-- 1.0 -->
      <g transform="translate(259.029688 247.357656) scale(0.1 -0.1)">
       <use xlink:href="#DejaVuSans-31"/>
       <use xlink:href="#DejaVuSans-2e" x="63.623047"/>
       <use xlink:href="#DejaVuSans-30" x="95.410156"/>
      </g>
     </g>
    </g>
    <g id="xtick_6">
     <g id="line2d_11">
      <path d="M 322.78125 232.759219 
L 322.78125 10.999219 
" clip-path="url(#p82d153823d)" style="fill: none; stroke: #b0b0b0; stroke-width: 0.8; stroke-linecap: square"/>
     </g>
     <g id="line2d_12">
      <g>
       <use xlink:href="#mdd372b16df" x="322.78125" y="232.759219" style="stroke: #000000; stroke-width: 0.8"/>
      </g>
     </g>
     <g id="text_6">
      <!-- 1.5 -->
      <g transform="translate(314.829687 247.357656) scale(0.1 -0.1)">
       <use xlink:href="#DejaVuSans-31"/>
       <use xlink:href="#DejaVuSans-2e" x="63.623047"/>
       <use xlink:href="#DejaVuSans-35" x="95.410156"/>
      </g>
     </g>
    </g>
    <g id="text_7">
     <!-- $H_0 (t - t_0)$ -->
     <g transform="translate(160.83125 261.035781) scale(0.1 -0.1)">
      <defs>
       <path id="DejaVuSans-Oblique-48" d="M 1081 4666 
L 1716 4666 
L 1344 2753 
L 3634 2753 
L 4006 4666 
L 4641 4666 
L 3731 0 
L 3097 0 
L 3531 2222 
L 1241 2222 
L 806 0 
L 172 0 
L 1081 4666 
z
" transform="scale(0.015625)"/>
       <path id="DejaVuSans-28" d="M 1984 4856 
Q 1566 4138 1362 3434 
Q 1159 2731 1159 2009 
Q 1159 1288 1364 580 
Q 1569 -128 1984 -844 
L 1484 -844 
Q 1016 -109 783 600 
Q 550 1309 550 2009 
Q 550 2706 781 3412 
Q 1013 4119 1484 4856 
L 1984 4856 
z
" transform="scale(0.015625)"/>
       <path id="DejaVuSans-Oblique-74" d="M 2706 3500 
L 2619 3053 
L 1472 3053 
L 1100 1153 
Q 1081 1047 1072 975 
Q 1063 903 1063 863 
Q 1063 663 1183 572 
Q 1303 481 1569 481 
L 2150 481 
L 2053 0 
L 1503 0 
Q 991 0 739 200 
Q 488 400 488 806 
Q 488 878 497 964 
Q 506 1050 525 1153 
L 897 3053 
L 409 3053 
L 500 3500 
L 978 3500 
L 1172 4494 
L 1747 4494 
L 1556 3500 
L 2706 3500 
z
" transform="scale(0.015625)"/>
       <path id="DejaVuSans-29" d="M 513 4856 
L 1013 4856 
Q 1481 4119 1714 3412 
Q 1947 2706 1947 2009 
Q 1947 1309 1714 600 
Q 1481 -109 1013 -844 
L 513 -844 
Q 928 -128 1133 580 
Q 1338 1288 1338 2009 
Q 1338 2731 1133 3434 
Q 928 4138 513 4856 
z
" transform="scale(0.015625)"/>
      </defs>
      <use xlink:href="#DejaVuSans-Oblique-48" transform="translate(0 0.125)"/>
      <use xlink:href="#DejaVuSans-30" transform="translate(75.195312 -16.28125) scale(0.7)"/>
      <use xlink:href="#DejaVuSans-28" transform="translate(122.46582 0.125)"/>
      <use xlink:href="#DejaVuSans-Oblique-74" transform="translate(161.479492 0.125)"/>
      <use xlink:href="#DejaVuSans-2212" transform="translate(220.170898 0.125)"/>
      <use xlink:href="#DejaVuSans-Oblique-74" transform="translate(323.442383 0.125)"/>
      <use xlink:href="#DejaVuSans-30" transform="translate(362.651367 -16.28125) scale(0.7)"/>
      <use xlink:href="#DejaVuSans-29" transform="translate(409.921875 0.125)"/>
     </g>
    </g>
   </g>
   <g id="matplotlib.axis_2">
    <g id="ytick_1">
     <g id="line2d_13">
      <path d="M 43.78125 232.759219 
L 322.78125 232.759219 
" clip-path="url(#p82d153823d)" style="fill: none; stroke: #b0b0b0; stroke-width: 0.8; stroke-linecap: square"/>
     </g>
     <g id="line2d_14">
      <defs>
       <path id="ma3b3787b0d" d="M 0 0 
L -3.5 0 
" style="stroke: #000000; stroke-width: 0.8"/>
      </defs>
      <g>
       <use xlink:href="#ma3b3787b0d" x="43.78125" y="232.759219" style="stroke: #000000; stroke-width: 0.8"/>
      </g>
     </g>
     <g id="text_8">
      <!-- 0.2 -->
      <g transform="translate(20.878125 236.558437) scale(0.1 -0.1)">
       <defs>
        <path id="DejaVuSans-32" d="M 1228 531 
L 3431 531 
L 3431 0 
L 469 0 
L 469 531 
Q 828 903 1448 1529 
Q 2069 2156 2228 2338 
Q 2531 2678 2651 2914 
Q 2772 3150 2772 3378 
Q 2772 3750 2511 3984 
Q 2250 4219 1831 4219 
Q 1534 4219 1204 4116 
Q 875 4013 500 3803 
L 500 4441 
Q 881 4594 1212 4672 
Q 1544 4750 1819 4750 
Q 2544 4750 2975 4387 
Q 3406 4025 3406 3419 
Q 3406 3131 3298 2873 
Q 3191 2616 2906 2266 
Q 2828 2175 2409 1742 
Q 1991 1309 1228 531 
z
" transform="scale(0.015625)"/>
       </defs>
       <use xlink:href="#DejaVuSans-30"/>
       <use xlink:href="#DejaVuSans-2e" x="63.623047"/>
       <use xlink:href="#DejaVuSans-32" x="95.410156"/>
      </g>
     </g>
    </g>
    <g id="ytick_2">
     <g id="line2d_15">
      <path d="M 43.78125 208.119219 
L 322.78125 208.119219 
" clip-path="url(#p82d153823d)" style="fill: none; stroke: #b0b0b0; stroke-width: 0.8; stroke-linecap: square"/>
     </g>
     <g id="line2d_16">
      <g>
       <use xlink:href="#ma3b3787b0d" x="43.78125" y="208.119219" style="stroke: #000000; stroke-width: 0.8"/>
      </g>
     </g>
     <g id="text_9">
      <!-- 0.4 -->
      <g transform="translate(20.878125 211.918437) scale(0.1 -0.1)">
       <defs>
        <path id="DejaVuSans-34" d="M 2419 4116 
L 825 1625 
L 2419 1625 
L 2419 4116 
z
M 2253 4666 
L 3047 4666 
L 3047 1625 
L 3713 1625 
L 3713 1100 
L 3047 1100 
L 3047 0 
L 2419 0 
L 2419 1100 
L 313 1100 
L 313 1709 
L 2253 4666 
z
" transform="scale(0.015625)"/>
       </defs>
       <use xlink:href="#DejaVuSans-30"/>
       <use xlink:href="#DejaVuSans-2e" x="63.623047"/>
       <use xlink:href="#DejaVuSans-34" x="95.410156"/>
      </g>
     </g>
    </g>
    <g id="ytick_3">
     <g id="line2d_17">
      <path d="M 43.78125 183.479219 
L 322.78125 183.479219 
" clip-path="url(#p82d153823d)" style="fill: none; stroke: #b0b0b0; stroke-width: 0.8; stroke-linecap: square"/>
     </g>
     <g id="line2d_18">
      <g>
       <use xlink:href="#ma3b3787b0d" x="43.78125" y="183.479219" style="stroke: #000000; stroke-width: 0.8"/>
      </g>
     </g>
     <g id="text_10">
      <!-- 0.6 -->
      <g transform="translate(20.878125 187.278437) scale(0.1 -0.1)">
       <defs>
        <path id="DejaVuSans-36" d="M 2113 2584 
Q 1688 2584 1439 2293 
Q 1191 2003 1191 1497 
Q 1191 994 1439 701 
Q 1688 409 2113 409 
Q 2538 409 2786 701 
Q 3034 994 3034 1497 
Q 3034 2003 2786 2293 
Q 2538 2584 2113 2584 
z
M 3366 4563 
L 3366 3988 
Q 3128 4100 2886 4159 
Q 2644 4219 2406 4219 
Q 1781 4219 1451 3797 
Q 1122 3375 1075 2522 
Q 1259 2794 1537 2939 
Q 1816 3084 2150 3084 
Q 2853 3084 3261 2657 
Q 3669 2231 3669 1497 
Q 3669 778 3244 343 
Q 2819 -91 2113 -91 
Q 1303 -91 875 529 
Q 447 1150 447 2328 
Q 447 3434 972 4092 
Q 1497 4750 2381 4750 
Q 2619 4750 2861 4703 
Q 3103 4656 3366 4563 
z
" transform="scale(0.015625)"/>
       </defs>
       <use xlink:href="#DejaVuSans-30"/>
       <use xlink:href="#DejaVuSans-2e" x="63.623047"/>
       <use xlink:href="#DejaVuSans-36" x="95.410156"/>
      </g>
     </g>
    </g>
    <g id="ytick_4">
     <g id="line2d_19">
      <path d="M 43.78125 158.839219 
L 322.78125 158.839219 
" clip-path="url(#p82d153823d)" style="fill: none; stroke: #b0b0b0; stroke-width: 0.8; stroke-linecap: square"/>
     </g>
     <g id="line2d_20">
      <g>
       <use xlink:href="#ma3b3787b0d" x="43.78125" y="158.839219" style="stroke: #000000; stroke-width: 0.8"/>
      </g>
     </g>
     <g id="text_11">
      <!-- 0.8 -->
      <g transform="translate(20.878125 162.638437) scale(0.1 -0.1)">
       <defs>
        <path id="DejaVuSans-38" d="M 2034 2216 
Q 1584 2216 1326 1975 
Q 1069 1734 1069 1313 
Q 1069 891 1326 650 
Q 1584 409 2034 409 
Q 2484 409 2743 651 
Q 3003 894 3003 1313 
Q 3003 1734 2745 1975 
Q 2488 2216 2034 2216 
z
M 1403 2484 
Q 997 2584 770 2862 
Q 544 3141 544 3541 
Q 544 4100 942 4425 
Q 1341 4750 2034 4750 
Q 2731 4750 3128 4425 
Q 3525 4100 3525 3541 
Q 3525 3141 3298 2862 
Q 3072 2584 2669 2484 
Q 3125 2378 3379 2068 
Q 3634 1759 3634 1313 
Q 3634 634 3220 271 
Q 2806 -91 2034 -91 
Q 1263 -91 848 271 
Q 434 634 434 1313 
Q 434 1759 690 2068 
Q 947 2378 1403 2484 
z
M 1172 3481 
Q 1172 3119 1398 2916 
Q 1625 2713 2034 2713 
Q 2441 2713 2670 2916 
Q 2900 3119 2900 3481 
Q 2900 3844 2670 4047 
Q 2441 4250 2034 4250 
Q 1625 4250 1398 4047 
Q 1172 3844 1172 3481 
z
" transform="scale(0.015625)"/>
       </defs>
       <use xlink:href="#DejaVuSans-30"/>
       <use xlink:href="#DejaVuSans-2e" x="63.623047"/>
       <use xlink:href="#DejaVuSans-38" x="95.410156"/>
      </g>
     </g>
    </g>
    <g id="ytick_5">
     <g id="line2d_21">
      <path d="M 43.78125 134.199219 
L 322.78125 134.199219 
" clip-path="url(#p82d153823d)" style="fill: none; stroke: #b0b0b0; stroke-width: 0.8; stroke-linecap: square"/>
     </g>
     <g id="line2d_22">
      <g>
       <use xlink:href="#ma3b3787b0d" x="43.78125" y="134.199219" style="stroke: #000000; stroke-width: 0.8"/>
      </g>
     </g>
     <g id="text_12">
      <!-- 1.0 -->
      <g transform="translate(20.878125 137.998437) scale(0.1 -0.1)">
       <use xlink:href="#DejaVuSans-31"/>
       <use xlink:href="#DejaVuSans-2e" x="63.623047"/>
       <use xlink:href="#DejaVuSans-30" x="95.410156"/>
      </g>
     </g>
    </g>
    <g id="ytick_6">
     <g id="line2d_23">
      <path d="M 43.78125 109.559219 
L 322.78125 109.559219 
" clip-path="url(#p82d153823d)" style="fill: none; stroke: #b0b0b0; stroke-width: 0.8; stroke-linecap: square"/>
     </g>
     <g id="line2d_24">
      <g>
       <use xlink:href="#ma3b3787b0d" x="43.78125" y="109.559219" style="stroke: #000000; stroke-width: 0.8"/>
      </g>
     </g>
     <g id="text_13">
      <!-- 1.2 -->
      <g transform="translate(20.878125 113.358437) scale(0.1 -0.1)">
       <use xlink:href="#DejaVuSans-31"/>
       <use xlink:href="#DejaVuSans-2e" x="63.623047"/>
       <use xlink:href="#DejaVuSans-32" x="95.410156"/>
      </g>
     </g>
    </g>
    <g id="ytick_7">
     <g id="line2d_25">
      <path d="M 43.78125 84.919219 
L 322.78125 84.919219 
" clip-path="url(#p82d153823d)" style="fill: none; stroke: #b0b0b0; stroke-width: 0.8; stroke-linecap: square"/>
     </g>
     <g id="line2d_26">
      <g>
       <use xlink:href="#ma3b3787b0d" x="43.78125" y="84.919219" style="stroke: #000000; stroke-width: 0.8"/>
      </g>
     </g>
     <g id="text_14">
      <!-- 1.4 -->
      <g transform="translate(20.878125 88.718437) scale(0.1 -0.1)">
       <use xlink:href="#DejaVuSans-31"/>
       <use xlink:href="#DejaVuSans-2e" x="63.623047"/>
       <use xlink:href="#DejaVuSans-34" x="95.410156"/>
      </g>
     </g>
    </g>
    <g id="ytick_8">
     <g id="line2d_27">
      <path d="M 43.78125 60.279219 
L 322.78125 60.279219 
" clip-path="url(#p82d153823d)" style="fill: none; stroke: #b0b0b0; stroke-width: 0.8; stroke-linecap: square"/>
     </g>
     <g id="line2d_28">
      <g>
       <use xlink:href="#ma3b3787b0d" x="43.78125" y="60.279219" style="stroke: #000000; stroke-width: 0.8"/>
      </g>
     </g>
     <g id="text_15">
      <!-- 1.6 -->
      <g transform="translate(20.878125 64.078437) scale(0.1 -0.1)">
       <use xlink:href="#DejaVuSans-31"/>
       <use xlink:href="#DejaVuSans-2e" x="63.623047"/>
       <use xlink:href="#DejaVuSans-36" x="95.410156"/>
      </g>
     </g>
    </g>
    <g id="ytick_9">
     <g id="line2d_29">
      <path d="M 43.78125 35.639219 
L 322.78125 35.639219 
" clip-path="url(#p82d153823d)" style="fill: none; stroke: #b0b0b0; stroke-width: 0.8; stroke-linecap: square"/>
     </g>
     <g id="line2d_30">
      <g>
       <use xlink:href="#ma3b3787b0d" x="43.78125" y="35.639219" style="stroke: #000000; stroke-width: 0.8"/>
      </g>
     </g>
     <g id="text_16">
      <!-- 1.8 -->
      <g transform="translate(20.878125 39.438437) scale(0.1 -0.1)">
       <use xlink:href="#DejaVuSans-31"/>
       <use xlink:href="#DejaVuSans-2e" x="63.623047"/>
       <use xlink:href="#DejaVuSans-38" x="95.410156"/>
      </g>
     </g>
    </g>
    <g id="ytick_10">
     <g id="line2d_31">
      <path d="M 43.78125 10.999219 
L 322.78125 10.999219 
" clip-path="url(#p82d153823d)" style="fill: none; stroke: #b0b0b0; stroke-width: 0.8; stroke-linecap: square"/>
     </g>
     <g id="line2d_32">
      <g>
       <use xlink:href="#ma3b3787b0d" x="43.78125" y="10.999219" style="stroke: #000000; stroke-width: 0.8"/>
      </g>
     </g>
     <g id="text_17">
      <!-- 2.0 -->
      <g transform="translate(20.878125 14.798437) scale(0.1 -0.1)">
       <use xlink:href="#DejaVuSans-32"/>
       <use xlink:href="#DejaVuSans-2e" x="63.623047"/>
       <use xlink:href="#DejaVuSans-30" x="95.410156"/>
      </g>
     </g>
    </g>
    <g id="text_18">
     <!-- $a(t)$ -->
     <g transform="translate(14.798438 130.829219) rotate(-90) scale(0.1 -0.1)">
      <defs>
       <path id="DejaVuSans-Oblique-61" d="M 3438 1997 
L 3047 0 
L 2472 0 
L 2578 531 
Q 2325 219 2001 64 
Q 1678 -91 1281 -91 
Q 834 -91 548 182 
Q 263 456 263 884 
Q 263 1497 752 1853 
Q 1241 2209 2100 2209 
L 2900 2209 
L 2931 2363 
Q 2938 2388 2941 2417 
Q 2944 2447 2944 2509 
Q 2944 2788 2717 2942 
Q 2491 3097 2081 3097 
Q 1800 3097 1504 3025 
Q 1209 2953 897 2809 
L 997 3341 
Q 1322 3463 1633 3523 
Q 1944 3584 2234 3584 
Q 2853 3584 3176 3315 
Q 3500 3047 3500 2534 
Q 3500 2431 3484 2292 
Q 3469 2153 3438 1997 
z
M 2816 1759 
L 2241 1759 
Q 1534 1759 1195 1570 
Q 856 1381 856 984 
Q 856 709 1029 553 
Q 1203 397 1509 397 
Q 1978 397 2328 733 
Q 2678 1069 2791 1631 
L 2816 1759 
z
" transform="scale(0.015625)"/>
      </defs>
      <use xlink:href="#DejaVuSans-Oblique-61" transform="translate(0 0.125)"/>
      <use xlink:href="#DejaVuSans-28" transform="translate(61.279297 0.125)"/>
      <use xlink:href="#DejaVuSans-Oblique-74" transform="translate(100.292969 0.125)"/>
      <use xlink:href="#DejaVuSans-29" transform="translate(139.501953 0.125)"/>
     </g>
    </g>
   </g>
   <g id="line2d_33">
    <path d="M 52.081576 245.079219 
L 54.076084 241.506419 
L 56.467423 237.687219 
L 59.361916 233.498419 
L 62.700937 229.063219 
L 66.598532 224.258419 
L 71.189223 218.960819 
L 76.620314 213.047219 
L 83.040764 206.394419 
L 91.213537 198.263219 
L 103.331268 186.559219 
L 125.419157 165.245619 
L 135.789321 154.896819 
L 144.739687 145.656819 
L 153.024135 136.786419 
L 160.775846 128.162419 
L 168.226903 119.538419 
L 175.382034 110.914419 
L 182.250454 102.290419 
L 188.936346 93.543219 
L 195.530497 84.549619 
L 201.94123 75.432819 
L 208.255568 66.069619 
L 214.469959 56.460019 
L 220.656999 46.480819 
L 226.734627 36.255219 
L 232.77178 25.660019 
L 238.760863 14.695219 
L 244.695588 3.360819 
L 246.913645 -1 
L 246.913645 -1 
" clip-path="url(#p82d153823d)" style="fill: none; stroke: #1f77b4; stroke-width: 1.5; stroke-linecap: square"/>
   </g>
   <g id="line2d_34">
    <path d="M 83.333985 245.079219 
L 84.753963 240.520819 
L 86.521544 235.592819 
L 88.658523 230.295219 
L 91.188186 224.628019 
L 94.072087 218.714419 
L 97.38761 212.431219 
L 101.087791 205.901619 
L 105.183996 199.125619 
L 109.688179 192.103219 
L 114.612722 184.834419 
L 120.060338 177.196019 
L 125.96255 169.311219 
L 132.332319 161.180019 
L 139.182789 152.802419 
L 146.527251 144.178419 
L 154.379113 135.308019 
L 162.751881 126.191219 
L 171.539957 116.951219 
L 180.868212 107.464819 
L 190.750435 97.732019 
L 201.200453 87.752819 
L 212.232129 77.527219 
L 223.859348 67.055219 
L 236.096025 56.336819 
L 248.956092 45.372019 
L 262.303296 34.284019 
L 276.294235 22.949619 
L 290.942927 11.368819 
L 306.263398 -0.458381 
L 306.973568 -1 
L 306.973568 -1 
" clip-path="url(#p82d153823d)" style="fill: none; stroke: #ff7f0e; stroke-width: 2; stroke-linecap: square"/>
   </g>
   <g id="line2d_35">
    <path d="M 69.147433 245.079219 
L 71.245242 240.890419 
L 73.842851 236.208819 
L 77.039578 230.911219 
L 80.950686 224.874419 
L 85.616169 218.098419 
L 91.067221 210.583219 
L 97.422974 202.205619 
L 104.810573 192.842419 
L 113.362972 182.370419 
L 123.217174 170.666419 
L 134.404973 157.730419 
L 147.170516 143.316019 
L 161.656363 127.300019 
L 178.119566 109.436019 
L 196.707666 89.600819 
L 217.68438 67.548019 
L 241.317549 43.031219 
L 267.877745 15.804019 
L 284.40866 -1 
L 284.40866 -1 
" clip-path="url(#p82d153823d)" style="fill: none; stroke: #2ca02c; stroke-width: 2; stroke-linecap: square"/>
   </g>
   <g id="line2d_36">
    <path d="M 103.820755 245.079219 
L 104.832712 239.042419 
L 106.134248 232.636019 
L 107.714043 225.983219 
L 109.551285 219.207219 
L 111.653943 212.308019 
L 113.990968 205.408819 
L 116.518517 198.632819 
L 119.283769 191.856819 
L 122.240583 185.204019 
L 125.389145 178.674419 
L 128.665323 172.391219 
L 132.130561 166.231219 
L 135.714287 160.317619 
L 139.408603 154.650419 
L 143.206372 149.229619 
L 147.101118 144.055219 
L 151.086946 139.127219 
L 155.158495 134.445619 
L 159.310909 130.010419 
L 163.539838 125.821619 
L 167.841461 121.879219 
L 172.060871 118.306419 
L 176.320466 114.980019 
L 180.612623 111.900019 
L 184.928784 109.066419 
L 189.258943 106.479219 
L 193.59086 104.138419 
L 197.908774 102.044019 
L 202.496616 100.072819 
L 207.110565 98.348019 
L 211.746373 96.869619 
L 216.399392 95.637619 
L 221.063921 94.652019 
L 225.731018 93.912819 
L 230.377848 93.420019 
L 232.130972 93.296819 
L 229.415061 93.173619 
L 235.285861 93.543219 
L 240.267827 94.159219 
L 245.088676 95.021619 
L 249.839202 96.130419 
L 254.151214 97.362419 
L 258.541454 98.840819 
L 262.970437 100.565619 
L 267.413951 102.536819 
L 271.855732 104.754419 
L 276.283914 107.218419 
L 280.689191 109.928819 
L 285.063794 112.885619 
L 289.40089 116.088819 
L 293.694218 119.538419 
L 297.937846 123.234419 
L 302.126004 127.176819 
L 306.252966 131.365619 
L 310.312953 135.800819 
L 314.300054 140.482419 
L 318.208146 145.410419 
L 322.030824 150.584819 
L 325.761323 156.005619 
L 329.392421 161.672819 
L 332.916339 167.586419 
L 336.324605 173.746419 
L 338.932812 178.794123 
L 338.932812 178.794123 
" clip-path="url(#p82d153823d)" style="fill: none; stroke: #d62728; stroke-width: 2; stroke-linecap: square"/>
   </g>
   <g id="patch_3">
    <path d="M 43.78125 232.759219 
L 43.78125 10.999219 
" style="fill: none; stroke: #000000; stroke-width: 0.8; stroke-linejoin: miter; stroke-linecap: square"/>
   </g>
   <g id="patch_4">
    <path d="M 322.78125 232.759219 
L 322.78125 10.999219 
" style="fill: none; stroke: #000000; stroke-width: 0.8; stroke-linejoin: miter; stroke-linecap: square"/>
   </g>
   <g id="patch_5">
    <path d="M 43.78125 232.759219 
L 322.78125 232.759219 
" style="fill: none; stroke: #000000; stroke-width: 0.8; stroke-linejoin: miter; stroke-linecap: square"/>
   </g>
   <g id="patch_6">
    <path d="M 43.78125 10.999219 
L 322.78125 10.999219 
" style="fill: none; stroke: #000000; stroke-width: 0.8; stroke-linejoin: miter; stroke-linecap: square"/>
   </g>
   <g id="legend_1">
    <g id="patch_7">
     <path d="M 50.78125 77.711719 
L 191.48125 77.711719 
Q 193.48125 77.711719 193.48125 75.711719 
L 193.48125 17.999219 
Q 193.48125 15.999219 191.48125 15.999219 
L 50.78125 15.999219 
Q 48.78125 15.999219 48.78125 17.999219 
L 48.78125 75.711719 
Q 48.78125 77.711719 50.78125 77.711719 
z
" style="fill: #ffffff; opacity: 0.8; stroke: #cccccc; stroke-linejoin: miter"/>
    </g>
    <g id="line2d_37">
     <path d="M 52.78125 24.097656 
L 62.78125 24.097656 
L 72.78125 24.097656 
" style="fill: none; stroke: #1f77b4; stroke-width: 1.5; stroke-linecap: square"/>
    </g>
    <g id="text_19">
     <!-- $\Omega_M =$ 0.30, $\Omega_\Lambda =$ 0.70 -->
     <g transform="translate(80.78125 27.597656) scale(0.1 -0.1)">
      <defs>
       <path id="DejaVuSans-3a9" d="M 4647 556 
L 4647 0 
L 2772 0 
L 2772 556 
Q 3325 859 3634 1378 
Q 3944 1897 3944 2528 
Q 3944 3278 3531 3731 
Q 3119 4184 2444 4184 
Q 1769 4184 1355 3729 
Q 941 3275 941 2528 
Q 941 1897 1250 1378 
Q 1563 859 2119 556 
L 2119 0 
L 244 0 
L 244 556 
L 1241 556 
Q 747 991 519 1456 
Q 294 1922 294 2497 
Q 294 3491 894 4106 
Q 1491 4722 2444 4722 
Q 3391 4722 3994 4106 
Q 4594 3494 4594 2528 
Q 4594 1922 4372 1459 
Q 4150 997 3647 556 
L 4647 556 
z
" transform="scale(0.015625)"/>
       <path id="DejaVuSans-Oblique-4d" d="M 1081 4666 
L 2028 4666 
L 2572 1522 
L 4378 4666 
L 5350 4666 
L 4441 0 
L 3828 0 
L 4622 4091 
L 2791 897 
L 2175 897 
L 1581 4103 
L 788 0 
L 172 0 
L 1081 4666 
z
" transform="scale(0.015625)"/>
       <path id="DejaVuSans-3d" d="M 678 2906 
L 4684 2906 
L 4684 2381 
L 678 2381 
L 678 2906 
z
M 678 1631 
L 4684 1631 
L 4684 1100 
L 678 1100 
L 678 1631 
z
" transform="scale(0.015625)"/>
       <path id="DejaVuSans-20" transform="scale(0.015625)"/>
       <path id="DejaVuSans-33" d="M 2597 2516 
Q 3050 2419 3304 2112 
Q 3559 1806 3559 1356 
Q 3559 666 3084 287 
Q 2609 -91 1734 -91 
Q 1441 -91 1130 -33 
Q 819 25 488 141 
L 488 750 
Q 750 597 1062 519 
Q 1375 441 1716 441 
Q 2309 441 2620 675 
Q 2931 909 2931 1356 
Q 2931 1769 2642 2001 
Q 2353 2234 1838 2234 
L 1294 2234 
L 1294 2753 
L 1863 2753 
Q 2328 2753 2575 2939 
Q 2822 3125 2822 3475 
Q 2822 3834 2567 4026 
Q 2313 4219 1838 4219 
Q 1578 4219 1281 4162 
Q 984 4106 628 3988 
L 628 4550 
Q 988 4650 1302 4700 
Q 1616 4750 1894 4750 
Q 2613 4750 3031 4423 
Q 3450 4097 3450 3541 
Q 3450 3153 3228 2886 
Q 3006 2619 2597 2516 
z
" transform="scale(0.015625)"/>
       <path id="DejaVuSans-2c" d="M 750 794 
L 1409 794 
L 1409 256 
L 897 -744 
L 494 -744 
L 750 256 
L 750 794 
z
" transform="scale(0.015625)"/>
       <path id="DejaVuSans-39b" d="M 716 0 
L 50 0 
L 1831 4666 
L 2547 4666 
L 4325 0 
L 3669 0 
L 2188 4044 
L 716 0 
z
" transform="scale(0.015625)"/>
       <path id="DejaVuSans-37" d="M 525 4666 
L 3525 4666 
L 3525 4397 
L 1831 0 
L 1172 0 
L 2766 4134 
L 525 4134 
L 525 4666 
z
" transform="scale(0.015625)"/>
      </defs>
      <use xlink:href="#DejaVuSans-3a9" transform="translate(0 0.78125)"/>
      <use xlink:href="#DejaVuSans-Oblique-4d" transform="translate(77.373047 -15.625) scale(0.7)"/>
      <use xlink:href="#DejaVuSans-3d" transform="translate(159.985352 0.78125)"/>
      <use xlink:href="#DejaVuSans-20" transform="translate(263.256836 0.78125)"/>
      <use xlink:href="#DejaVuSans-30" transform="translate(295.043945 0.78125)"/>
      <use xlink:href="#DejaVuSans-2e" transform="translate(358.666992 0.78125)"/>
      <use xlink:href="#DejaVuSans-33" transform="translate(390.454102 0.78125)"/>
      <use xlink:href="#DejaVuSans-30" transform="translate(454.077148 0.78125)"/>
      <use xlink:href="#DejaVuSans-2c" transform="translate(517.700195 0.78125)"/>
      <use xlink:href="#DejaVuSans-20" transform="translate(549.487305 0.78125)"/>
      <use xlink:href="#DejaVuSans-3a9" transform="translate(581.274414 0.78125)"/>
      <use xlink:href="#DejaVuSans-39b" transform="translate(658.647461 -15.625) scale(0.7)"/>
      <use xlink:href="#DejaVuSans-3d" transform="translate(728.75 0.78125)"/>
      <use xlink:href="#DejaVuSans-20" transform="translate(832.021484 0.78125)"/>
      <use xlink:href="#DejaVuSans-30" transform="translate(863.808594 0.78125)"/>
      <use xlink:href="#DejaVuSans-2e" transform="translate(927.431641 0.78125)"/>
      <use xlink:href="#DejaVuSans-37" transform="translate(951.46875 0.78125)"/>
      <use xlink:href="#DejaVuSans-30" transform="translate(1015.091797 0.78125)"/>
     </g>
    </g>
    <g id="line2d_38">
     <path d="M 52.78125 38.775781 
L 62.78125 38.775781 
L 72.78125 38.775781 
" style="fill: none; stroke: #ff7f0e; stroke-width: 2; stroke-linecap: square"/>
    </g>
    <g id="text_20">
     <!-- $\Omega_M =$ 1.00, $\Omega_\Lambda =$ 0.00 -->
     <g transform="translate(80.78125 42.275781) scale(0.1 -0.1)">
      <use xlink:href="#DejaVuSans-3a9" transform="translate(0 0.78125)"/>
      <use xlink:href="#DejaVuSans-Oblique-4d" transform="translate(77.373047 -15.625) scale(0.7)"/>
      <use xlink:href="#DejaVuSans-3d" transform="translate(159.985352 0.78125)"/>
      <use xlink:href="#DejaVuSans-20" transform="translate(263.256836 0.78125)"/>
      <use xlink:href="#DejaVuSans-31" transform="translate(295.043945 0.78125)"/>
      <use xlink:href="#DejaVuSans-2e" transform="translate(358.666992 0.78125)"/>
      <use xlink:href="#DejaVuSans-30" transform="translate(390.454102 0.78125)"/>
      <use xlink:href="#DejaVuSans-30" transform="translate(454.077148 0.78125)"/>
      <use xlink:href="#DejaVuSans-2c" transform="translate(517.700195 0.78125)"/>
      <use xlink:href="#DejaVuSans-20" transform="translate(549.487305 0.78125)"/>
      <use xlink:href="#DejaVuSans-3a9" transform="translate(581.274414 0.78125)"/>
      <use xlink:href="#DejaVuSans-39b" transform="translate(658.647461 -15.625) scale(0.7)"/>
      <use xlink:href="#DejaVuSans-3d" transform="translate(728.75 0.78125)"/>
      <use xlink:href="#DejaVuSans-20" transform="translate(832.021484 0.78125)"/>
      <use xlink:href="#DejaVuSans-30" transform="translate(863.808594 0.78125)"/>
      <use xlink:href="#DejaVuSans-2e" transform="translate(927.431641 0.78125)"/>
      <use xlink:href="#DejaVuSans-30" transform="translate(959.21875 0.78125)"/>
      <use xlink:href="#DejaVuSans-30" transform="translate(1022.841797 0.78125)"/>
     </g>
    </g>
    <g id="line2d_39">
     <path d="M 52.78125 53.453906 
L 62.78125 53.453906 
L 72.78125 53.453906 
" style="fill: none; stroke: #2ca02c; stroke-width: 2; stroke-linecap: square"/>
    </g>
    <g id="text_21">
     <!-- $\Omega_M =$ 0.30, $\Omega_\Lambda =$ 0.00 -->
     <g transform="translate(80.78125 56.953906) scale(0.1 -0.1)">
      <use xlink:href="#DejaVuSans-3a9" transform="translate(0 0.78125)"/>
      <use xlink:href="#DejaVuSans-Oblique-4d" transform="translate(77.373047 -15.625) scale(0.7)"/>
      <use xlink:href="#DejaVuSans-3d" transform="translate(159.985352 0.78125)"/>
      <use xlink:href="#DejaVuSans-20" transform="translate(263.256836 0.78125)"/>
      <use xlink:href="#DejaVuSans-30" transform="translate(295.043945 0.78125)"/>
      <use xlink:href="#DejaVuSans-2e" transform="translate(358.666992 0.78125)"/>
      <use xlink:href="#DejaVuSans-33" transform="translate(390.454102 0.78125)"/>
      <use xlink:href="#DejaVuSans-30" transform="translate(454.077148 0.78125)"/>
      <use xlink:href="#DejaVuSans-2c" transform="translate(517.700195 0.78125)"/>
      <use xlink:href="#DejaVuSans-20" transform="translate(549.487305 0.78125)"/>
      <use xlink:href="#DejaVuSans-3a9" transform="translate(581.274414 0.78125)"/>
      <use xlink:href="#DejaVuSans-39b" transform="translate(658.647461 -15.625) scale(0.7)"/>
      <use xlink:href="#DejaVuSans-3d" transform="translate(728.75 0.78125)"/>
      <use xlink:href="#DejaVuSans-20" transform="translate(832.021484 0.78125)"/>
      <use xlink:href="#DejaVuSans-30" transform="translate(863.808594 0.78125)"/>
      <use xlink:href="#DejaVuSans-2e" transform="translate(927.431641 0.78125)"/>
      <use xlink:href="#DejaVuSans-30" transform="translate(959.21875 0.78125)"/>
      <use xlink:href="#DejaVuSans-30" transform="translate(1022.841797 0.78125)"/>
     </g>
    </g>
    <g id="line2d_40">
     <path d="M 52.78125 68.132031 
L 62.78125 68.132031 
L 72.78125 68.132031 
" style="fill: none; stroke: #d62728; stroke-width: 2; stroke-linecap: square"/>
    </g>
    <g id="text_22">
     <!-- $\Omega_M =$ 4.00, $\Omega_\Lambda =$ 0.00 -->
     <g transform="translate(80.78125 71.632031) scale(0.1 -0.1)">
      <use xlink:href="#DejaVuSans-3a9" transform="translate(0 0.78125)"/>
      <use xlink:href="#DejaVuSans-Oblique-4d" transform="translate(77.373047 -15.625) scale(0.7)"/>
      <use xlink:href="#DejaVuSans-3d" transform="translate(159.985352 0.78125)"/>
      <use xlink:href="#DejaVuSans-20" transform="translate(263.256836 0.78125)"/>
      <use xlink:href="#DejaVuSans-34" transform="translate(295.043945 0.78125)"/>
      <use xlink:href="#DejaVuSans-2e" transform="translate(358.666992 0.78125)"/>
      <use xlink:href="#DejaVuSans-30" transform="translate(390.454102 0.78125)"/>
      <use xlink:href="#DejaVuSans-30" transform="translate(454.077148 0.78125)"/>
      <use xlink:href="#DejaVuSans-2c" transform="translate(517.700195 0.78125)"/>
      <use xlink:href="#DejaVuSans-20" transform="translate(549.487305 0.78125)"/>
      <use xlink:href="#DejaVuSans-3a9" transform="translate(581.274414 0.78125)"/>
      <use xlink:href="#DejaVuSans-39b" transform="translate(658.647461 -15.625) scale(0.7)"/>
      <use xlink:href="#DejaVuSans-3d" transform="translate(728.75 0.78125)"/>
      <use xlink:href="#DejaVuSans-20" transform="translate(832.021484 0.78125)"/>
      <use xlink:href="#DejaVuSans-30" transform="translate(863.808594 0.78125)"/>
      <use xlink:href="#DejaVuSans-2e" transform="translate(927.431641 0.78125)"/>
      <use xlink:href="#DejaVuSans-30" transform="translate(959.21875 0.78125)"/>
      <use xlink:href="#DejaVuSans-30" transform="translate(1022.841797 0.78125)"/>
     </g>
    </g>
   </g>
  </g>
 </g>
 <defs>
  <clipPath id="p82d153823d">
   <rect x="43.78125" y="10.999219" width="279" height="221.76"/>
  </clipPath>
 </defs>
</svg>
